<svg xmlns="http://www.w3.org/2000/svg" viewBox="0 0 496.199 496.199" style="enable-background:new 0 0 496.199 496.199" xml:space="preserve"><path style="fill:#00233f" d="M405.634 475.026c0 11.689-9.476 21.173-21.173 21.173H111.73c-11.689 0-21.173-9.476-21.173-21.173V32.989c0-11.689 9.476-21.173 21.173-21.173h272.738c11.689 0 21.173 9.476 21.173 21.173v442.037h-.007z"/><path style="fill:#0c466d" d="M405.634 463.21c0 11.689-9.476 21.173-21.173 21.173H111.73c-11.689 0-21.173-9.476-21.173-21.173V21.173C90.557 9.484 100.033 0 111.73 0h272.738c11.689 0 21.173 9.476 21.173 21.173V463.21h-.007z"/><path style="fill:#00233f" d="M90.557 21.173C90.557 9.484 100.033 0 111.73 0h272.738c11.689 0 21.173 9.476 21.173 21.173v442.029c0 11.689-9.476 21.173-21.173 21.173"/><path style="fill:#00233f" d="M384.185 417.847c0 10.098-8.184 18.282-18.29 18.282H130.296c-10.106 0-18.29-8.184-18.29-18.282V51.759c0-10.106 8.184-18.29 18.29-18.29h235.599c10.106 0 18.29 8.184 18.29 18.29v366.088z"/><path style="fill:#c63205" d="M384.185 405.047c0 10.098-8.184 18.282-18.29 18.282H130.296c-10.106 0-18.29-8.184-18.29-18.282V38.959c0-10.106 8.184-18.29 18.29-18.29h235.599c10.106 0 18.29 8.184 18.29 18.29v366.088z"/><path style="fill:#aa2102" d="M112.006 38.959c0-10.106 8.184-18.29 18.29-18.29h235.599c10.106 0 18.29 8.184 18.29 18.29v366.088c0 10.098-8.184 18.282-18.29 18.282"/><path style="fill:#891603" d="M365.895 20.669c10.106 0 18.29 8.184 18.29 18.29v366.088c0 10.098-8.184 18.282-18.29 18.282"/><path style="fill:#f74421" d="M130.296 423.329c-10.106 0-18.29-8.184-18.29-18.282V38.959c0-10.106 8.184-18.29 18.29-18.29"/><path style="fill:#03355b;stroke:#71a7bf;stroke-width:.25;stroke-miterlimit:10" d="M296.019 464.321c0 5.144-4.183 9.326-9.326 9.326h-77.194c-5.144 0-9.326-4.175-9.326-9.326v-11.65c0-5.151 4.175-9.334 9.326-9.334h77.194c5.136 0 9.326 4.175 9.326 9.334v11.65z"/><path style="fill:#71a7bf" d="M168.578 450.119c0 .725-.591 1.308-1.315 1.308h-26.262a1.305 1.305 0 0 1-1.308-1.308c0-.725.583-1.308 1.308-1.308h26.262c.724 0 1.315.591 1.315 1.308zM168.578 458.492c0 .725-.591 1.308-1.315 1.308h-26.262a1.305 1.305 0 0 1-1.308-1.308c0-.725.583-1.308 1.308-1.308h26.262c.724 0 1.315.583 1.315 1.308zM168.578 466.857c0 .725-.591 1.308-1.315 1.308h-26.262a1.305 1.305 0 0 1-1.308-1.308c0-.725.583-1.308 1.308-1.308h26.262a1.318 1.318 0 0 1 1.315 1.308zM347.124 450.119c0 .725-.591 1.308-1.315 1.308h-26.27c-.717 0-1.3-.583-1.3-1.308 0-.725.583-1.308 1.3-1.308h26.27c.724 0 1.315.591 1.315 1.308z"/><path style="fill:#71a7bf" d="M345.817 472.938c-.725 0-1.308-.488-1.308-1.071v-21.236c0-.583.583-1.063 1.308-1.063.725 0 1.308.48 1.308 1.063v21.236c-.001.583-.584 1.071-1.308 1.071z"/><path style="fill:#177add" d="M151.028 10.319a2.024 2.024 0 0 1-2.04 2.032h-13.659a2.022 2.022 0 0 1-2.032-2.032c0-1.126.906-2.032 2.032-2.032h13.659a2.038 2.038 0 0 1 2.04 2.032z"/><circle style="fill:#177add" cx="359.105" cy="10.319" r="5.254"/><path style="fill:#cfe7e8" d="M158.212 171.945a2.96 2.96 0 0 1-2.954 2.954h-16.416a2.955 2.955 0 0 1 0-5.908h16.415a2.961 2.961 0 0 1 2.955 2.954zM158.212 183.761a2.96 2.96 0 0 1-2.954 2.954h-16.416a2.955 2.955 0 0 1 0-5.908h16.415a2.96 2.96 0 0 1 2.955 2.954zM158.212 195.576a2.96 2.96 0 0 1-2.954 2.954h-16.416a2.955 2.955 0 0 1 0-5.908h16.415a2.96 2.96 0 0 1 2.955 2.954zM169.728 62.779c.953-1.071 1.41-2.221 1.41-3.513 0-3.214-2.528-5.742-5.758-5.742h-8.822a.875.875 0 0 0-.866.874v18.148c0 .48.402.866.866.866h8.94c3.395 0 6.262-2.844 6.262-6.231-.008-1.732-.748-3.339-2.032-4.402zm-8.602 2.757h3.537c.709 0 1.3.599 1.3 1.323 0 .756-.559 1.339-1.3 1.339h-3.537v-2.662zm3.395-5.057h-3.395v-1.82h3.395c.496 0 .953.41.953.906 0 .497-.456.914-.953.914zM189.893 53.524h-8.003a.86.86 0 0 0-.859.874v18.148c0 .48.37.866.859.866h3.726a.873.873 0 0 0 .859-.866v-4.458h1.56c2.229 0 3.261 2.15 3.261 3.616v.835c0 .48.386.866.866.866h3.71a.87.87 0 0 0 .874-.866v-1.032c0-1.835-.63-4.088-2.316-5.482 1.426-1.481 2.316-3.576 2.316-5.616.008-3.782-3.072-6.885-6.853-6.885zm-3.411 5.135h2.458c1.158 0 2.143.985 2.143 2.135 0 1.189-.985 2.15-2.143 2.15h-2.458v-4.285zM217.927 68.198h-6.309V65.63h5.782a.865.865 0 0 0 .859-.874v-3.411a.862.862 0 0 0-.859-.866h-5.782v-1.741h6.168c.48 0 .866-.394.866-.866v-3.466a.87.87 0 0 0-.866-.874h-10.752c-.457 0-.851.394-.851.874v18.148c0 .48.402.866.851.866h10.894c.488 0 .89-.394.89-.866v-3.489c-.001-.465-.403-.867-.891-.867zM236.264 53.571a.86.86 0 0 0-.788-.504c-.339 0-.662.197-.788.504L226.45 72.2c-.134.252-.095.583.063.819a.886.886 0 0 0 .717.394h3.923a.826.826 0 0 0 .788-.52l1.134-2.686h4.844l1.079 2.686a.92.92 0 0 0 .819.52h3.907a.874.874 0 0 0 .866-.866.833.833 0 0 0-.158-.488l-8.168-18.488zm-.787 10.334.536 1.284h-1.087l.551-1.284zM262.518 62.48l5.561-7.57c.197-.268.244-.614.079-.914a.87.87 0 0 0-.772-.473h-4.183a.821.821 0 0 0-.685.386l-3.923 5.537v-5.049a.86.86 0 0 0-.859-.874h-3.71a.87.87 0 0 0-.859.874v18.148c0 .48.394.866.859.866h3.71a.858.858 0 0 0 .859-.866V67.71l.544-.701 4.143 6.042c.158.236.425.37.709.37h4.679a.87.87 0 0 0 .701-1.379l-6.853-9.562zM282.478 53.524h-3.694a.872.872 0 0 0-.874.874v18.148c0 .48.386.866.874.866h3.694a.88.88 0 0 0 .89-.866V54.398c.008-.48-.386-.874-.89-.874zM309.488 53.524h-3.466a.872.872 0 0 0-.874.874v6.908l-6.388-7.475a.88.88 0 0 0-.662-.307h-3.245a.86.86 0 0 0-.859.874v18.148c0 .48.378.866.859.866h3.489a.867.867 0 0 0 .859-.866V62.015l9.641 11.555c.165.197.41.307.646.307a.978.978 0 0 0 .307-.047.85.85 0 0 0 .559-.811V54.398a.86.86 0 0 0-.866-.874zM340.374 61.976a.87.87 0 0 0-.851-.733h-9.783c-.473 0-.843.386-.843.874v3.403c0 .48.378.859.843.859h4.317c-.78 1.213-2.135 2.245-4.08 2.245-2.718 0-4.844-2.221-4.844-5.081 0-2.867 2.135-5.12 4.844-5.12 1.583 0 3.056.756 3.931 2.016a.923.923 0 0 0 .559.378.869.869 0 0 0 .662-.165l3.048-2.245a.865.865 0 0 0 .189-1.213c-1.985-2.678-4.876-4.096-8.389-4.096-5.782 0-10.484 4.679-10.484 10.445 0 5.727 4.703 10.405 10.484 10.405 5.805 0 10.531-4.687 10.531-10.405a11.72 11.72 0 0 0-.134-1.567zM197.171 83.992h-6.955c-.961 0-1.717.756-1.717 1.701V112.9l-22.945-28.294a1.774 1.774 0 0 0-1.339-.614h-6.845c-.929 0-1.694.756-1.694 1.701v50.822c0 .945.764 1.717 1.694 1.717h6.987c.945 0 1.709-.772 1.709-1.717v-33.642l29.798 35.612c.339.394.811.599 1.308.599.205 0 .402-.024.599-.102a1.737 1.737 0 0 0 1.111-1.599v-51.69a1.704 1.704 0 0 0-1.711-1.701z"/><g><path style="fill:#b0d3d6" d="M237.761 127.535h-20.953V113.75h19.48c.953 0 1.733-.756 1.733-1.709v-6.987c0-.929-.78-1.686-1.733-1.686h-19.48v-8.862h20.512c.945 0 1.709-.772 1.709-1.725v-7.097a1.7 1.7 0 0 0-1.709-1.701h-29.625c-.929 0-1.701.756-1.701 1.701v50.822c0 .945.772 1.717 1.701 1.717h30.066c.922 0 1.701-.772 1.701-1.717v-7.27c0-.929-.772-1.701-1.701-1.701zM298.145 83.992h-7.751c-.693 0-1.323.41-1.599 1.056L277.24 113.46l-11.555-28.412a1.711 1.711 0 0 0-1.575-1.056h-7.775c-.559 0-1.103.268-1.434.74a1.729 1.729 0 0 0-.15 1.591l9.838 24.474-1.126 2.702-11.579-28.451a1.685 1.685 0 0 0-1.568-1.056h-7.79c-.559 0-1.087.268-1.402.74a1.758 1.758 0 0 0-.173 1.607l20.905 51.688a1.7 1.7 0 0 0 1.583 1.063 1.72 1.72 0 0 0 1.591-1.063l5.325-13.091 5.293 13.091c.268.654.89 1.063 1.591 1.063.67 0 1.315-.41 1.591-1.063l20.897-51.688c.205-.544.158-1.142-.173-1.607a1.664 1.664 0 0 0-1.409-.74zM324.423 105.693h-7.467a5.701 5.701 0 0 1-5.703-5.703c0-3.127 2.544-5.703 5.703-5.703h15.289c.953 0 1.725-.756 1.725-1.709v-6.892a1.71 1.71 0 0 0-1.725-1.701h-16.171c-8.704 0-15.793 7.097-15.793 15.856 0 8.791 7.223 16.234 15.793 16.234h7.058c3.458 0 6.105 2.481 6.105 5.774 0 3.237-2.647 5.687-6.105 5.687h-18.4c-.929 0-1.701.772-1.701 1.709v7.27c0 .945.772 1.717 1.701 1.717h19.684c8.862 0 16.077-7.389 16.077-16.455.007-8.869-7.209-16.084-16.07-16.084z"/></g><g><path style="fill:#cfe7e8" d="M251.884 85.047a1.685 1.685 0 0 0-1.568-1.056h-7.79c-.559 0-1.087.268-1.402.74a1.758 1.758 0 0 0-.173 1.607l6.357 15.675 8.16-8.153-3.584-8.813zM264.109 83.992h-7.775c-.559 0-1.103.268-1.434.74a1.729 1.729 0 0 0-.15 1.591l2.371 5.884 7.924-7.948a1.822 1.822 0 0 0-.936-.267zM236.288 103.377h-19.48v-8.862h20.512c.945 0 1.709-.772 1.709-1.725v-7.097a1.7 1.7 0 0 0-1.709-1.701h-29.625c-.929 0-1.701.756-1.701 1.701v50.822c0 .945.772 1.717 1.701 1.717h3.419l10.673-10.689h-4.978v-13.785h18.755l2.458-2.434v-6.262c-.001-.929-.781-1.685-1.734-1.685zM352.953 248.745a2.955 2.955 0 0 1-2.954 2.954H146.184a2.955 2.955 0 0 1 0-5.908h203.815a2.95 2.95 0 0 1 2.954 2.954zM352.953 281.238a2.955 2.955 0 0 1-2.954 2.954H146.184a2.955 2.955 0 0 1 0-5.908h203.815a2.95 2.95 0 0 1 2.954 2.954zM352.953 313.73a2.955 2.955 0 0 1-2.954 2.954H146.184a2.955 2.955 0 0 1 0-5.908h203.815a2.95 2.95 0 0 1 2.954 2.954zM352.953 346.222a2.955 2.955 0 0 1-2.954 2.954H146.184a2.955 2.955 0 0 1 0-5.908h203.815a2.95 2.95 0 0 1 2.954 2.954zM352.953 378.715a2.955 2.955 0 0 1-2.954 2.954H146.184a2.955 2.955 0 0 1 0-5.908h203.815a2.95 2.95 0 0 1 2.954 2.954z"/></g></svg>